<svg width="130" height="20" viewBox="0 0 130 20" fill="none" xmlns="http://www.w3.org/2000/svg">
<g clip-path="url(#clip0_1188_61295)">
<path d="M4.47612 18.515C0.576124 18.515 -0.147916 16.227 0.0220836 13.627H3.16411C3.16411 15.061 3.22411 16.268 4.95311 16.268C5.17569 16.283 5.3988 16.2481 5.60619 16.1659C5.81358 16.0837 6.00003 15.9563 6.15197 15.793C6.3039 15.6297 6.41745 15.4345 6.48443 15.2217C6.5514 15.0089 6.5701 14.7839 6.53911 14.563C6.53911 11.863 0.206105 11.689 0.206105 7.22C0.206105 4.869 1.33211 3 5.15911 3C8.22411 3 9.74211 4.371 9.53411 7.513H6.47411C6.47411 6.391 6.28808 5.244 5.01708 5.244C4.79981 5.21904 4.5797 5.24305 4.37291 5.31426C4.16613 5.38547 3.97791 5.50208 3.82207 5.65553C3.66623 5.80897 3.54675 5.99535 3.47234 6.201C3.39793 6.40666 3.3705 6.62637 3.39208 6.844C3.39208 9.693 9.72307 9.44399 9.72307 14.165C9.72207 18.058 6.86412 18.515 4.47612 18.515Z" fill="black"/>
<path d="M10.717 18.017L14.881 3H19.025L23.1071 18.017H19.798L18.965 14.686H14.678L13.8231 18.017H10.717ZM16.782 5.888H16.741L15.3 12.38H18.3L16.782 5.888Z" fill="black"/>
<path d="M24.394 18.017V3H29.453L31.806 13.211H31.847L34.3441 3H39.244V18.017H36.184V6.432H36.14L33.2501 18.017H30.2501L27.502 6.432H27.444V18.017H24.394Z" fill="black"/>
<path d="M45.7601 18.515C41.8671 18.515 41.1361 16.227 41.3061 13.627H44.4451C44.4451 15.061 44.5142 16.268 46.2372 16.268C46.4597 16.283 46.6828 16.2481 46.8902 16.1659C47.0976 16.0837 47.284 15.9563 47.4359 15.793C47.5879 15.6297 47.7015 15.4345 47.7685 15.2217C47.8354 15.0089 47.8541 14.7839 47.8232 14.563C47.8232 11.863 41.4921 11.689 41.4921 7.22C41.4921 4.869 42.6121 3 46.4471 3C49.5041 3 51.0241 4.371 50.8191 7.513H47.7601C47.7601 6.391 47.5741 5.244 46.3031 5.244C46.0857 5.21891 45.8655 5.24282 45.6585 5.31395C45.4516 5.38508 45.2632 5.50164 45.1071 5.65508C44.9511 5.80852 44.8315 5.99494 44.7569 6.20067C44.6823 6.4064 44.6547 6.62622 44.6761 6.844C44.6761 9.693 51.0071 9.44399 51.0071 14.165C51.0021 18.058 48.1531 18.515 45.7601 18.515Z" fill="black"/>
<path d="M63.292 3V13.646C63.292 15.896 62.021 18.263 58.192 18.263C54.732 18.263 53.072 16.476 53.072 13.646V3H56.211V13.44C56.211 15.29 57.003 16.021 58.148 16.021C59.52 16.021 60.148 15.104 60.148 13.44V3H63.292Z" fill="black"/>
<path d="M65.7581 18.017V3H69.998L73.998 13.4H74.0391V3H76.967V18.017H72.8281L68.728 7.034H68.6931V18.017H65.7581Z" fill="black"/>
<path d="M86.3721 7.86602C86.3911 6.47302 86.167 5.24402 84.498 5.24402C82.539 5.24402 82.5391 7.88502 82.5391 10.797C82.5391 15.497 82.994 16.331 84.788 16.331C85.3195 16.3184 85.8456 16.2205 86.3461 16.041V12.713H84.637V10.403H89.491V18.014C88.0902 18.2864 86.6709 18.4535 85.2451 18.514C79.9551 18.514 79.353 16.33 79.353 10.635C79.353 6.84702 79.542 2.99902 84.684 2.99902C87.766 2.99902 89.684 4.72602 89.491 7.86502L86.3721 7.86602Z" fill="black"/>
<path d="M100.697 18.515C96.8052 18.515 96.0792 16.227 96.2402 13.627H99.3822C99.3822 15.061 99.4482 16.268 101.176 16.268C101.398 16.2822 101.621 16.2467 101.828 16.1642C102.034 16.0817 102.22 15.9542 102.372 15.791C102.523 15.6277 102.636 15.4328 102.703 15.2204C102.769 15.008 102.788 14.7835 102.757 14.563C102.757 11.863 96.4322 11.689 96.4322 7.22C96.4322 4.869 97.5522 3 101.385 3C104.448 3 105.968 4.371 105.757 7.513H102.7C102.7 6.391 102.506 5.244 101.237 5.244C101.02 5.2192 100.8 5.24334 100.593 5.31462C100.387 5.3859 100.199 5.50253 100.043 5.65595C99.8871 5.80938 99.7677 5.99571 99.6934 6.20128C99.619 6.40685 99.5916 6.62646 99.6132 6.844C99.6132 9.693 105.946 9.44399 105.946 14.165C105.945 18.058 103.091 18.515 100.697 18.515Z" fill="black"/>
<path d="M108.127 3H113.37C117.492 3 118.259 5.74799 118.259 10.428C118.259 12.728 118.618 18.017 113.246 18.017H108.126L108.127 3ZM111.269 15.707H112.784C114.704 15.707 115.077 14.273 115.077 10.507C115.077 7.74 115.077 5.307 112.891 5.307H111.269V15.707Z" fill="black"/>
<path d="M124.754 18.515C120.864 18.515 120.136 16.227 120.303 13.627H123.448C123.448 15.061 123.508 16.268 125.237 16.268C125.459 16.2822 125.682 16.2467 125.888 16.1642C126.095 16.0817 126.281 15.9542 126.432 15.791C126.584 15.6277 126.697 15.4328 126.764 15.2204C126.83 15.008 126.849 14.7835 126.818 14.563C126.818 11.863 120.49 11.689 120.49 7.22C120.49 4.869 121.613 3 125.445 3C128.502 3 130.022 4.371 129.817 7.513H126.755C126.755 6.391 126.569 5.244 125.298 5.244C125.081 5.21876 124.861 5.24261 124.654 5.31377C124.447 5.38492 124.259 5.50158 124.103 5.65513C123.948 5.80868 123.829 5.99521 123.755 6.20097C123.681 6.40674 123.654 6.62648 123.676 6.844C123.676 9.693 130.001 9.44399 130.001 14.165C130 18.058 127.151 18.515 124.754 18.515Z" fill="black"/>
</g>
<defs>
<clipPath id="clip0_1188_61295">
<rect width="130" height="20" fill="white"/>
</clipPath>
</defs>
</svg>
